# xmcd CD database file
#
# Track frame offsets:
#	150
#	26196
#	56968
#	87221
#	126272
#	152056
#	188035
#	216386
#
# Disc length: 3215 seconds
#
# Revision: 0
# Processed by: cddbd v1.5.2PL0 Copyright (c) Steve Scherf et al.
# Submitted via: CDex 1.51
#
DISCID=730c8d08
DTITLE=Mike LeDonne - To Each His Own
DYEAR=1998
DGENRE=Jazz
TTITLE0=Encounter
TTITLE1=To each his own
TTITLE2=Movin' along
TTITLE3=The pharaoh
TTITLE4=Star-crossed lovers
TTITLE5=My romance
TTITLE6=Pretty little one
TTITLE7=Bleeker Street theme
EXTD=YEAR: 1998
EXTT0=
EXTT1=
EXTT2=
EXTT3=
EXTT4=
EXTT5=
EXTT6=
EXTT7=
PLAYORDER=
